<mxfile host="app.diagrams.net" modified="2023-05-20T09:24:20.642Z" agent="Mozilla/5.0 (X11; Linux x86_64) AppleWebKit/537.36 (KHTML, like Gecko) Chrome/111.0.0.0 Safari/537.36 Edg/111.0.1661.54" etag="EOkgL2BUkvvka39nF17U" version="21.3.2" type="github">
  <diagram name="第 1 页" id="NY8VQOZFq63FC9_u_Vzx">
    <mxGraphModel dx="1151" dy="627" grid="1" gridSize="2" guides="1" tooltips="1" connect="1" arrows="1" fold="1" page="1" pageScale="1" pageWidth="827" pageHeight="1169" math="0" shadow="0">
      <root>
        <mxCell id="0" />
        <mxCell id="1" parent="0" />
        <mxCell id="GGeQDxoz1ZYIfTlr36AT-14" style="edgeStyle=orthogonalEdgeStyle;rounded=0;orthogonalLoop=1;jettySize=auto;html=1;entryX=0.5;entryY=0;entryDx=0;entryDy=0;" edge="1" parent="1" source="GGeQDxoz1ZYIfTlr36AT-1" target="GGeQDxoz1ZYIfTlr36AT-3">
          <mxGeometry relative="1" as="geometry" />
        </mxCell>
        <mxCell id="GGeQDxoz1ZYIfTlr36AT-1" value="开始" style="rounded=0;whiteSpace=wrap;html=1;" vertex="1" parent="1">
          <mxGeometry x="365" y="120" width="40" height="20" as="geometry" />
        </mxCell>
        <mxCell id="GGeQDxoz1ZYIfTlr36AT-15" style="edgeStyle=orthogonalEdgeStyle;rounded=0;orthogonalLoop=1;jettySize=auto;html=1;entryX=0.5;entryY=0;entryDx=0;entryDy=0;startSize=2;endSize=3;" edge="1" parent="1" source="GGeQDxoz1ZYIfTlr36AT-3" target="GGeQDxoz1ZYIfTlr36AT-4">
          <mxGeometry relative="1" as="geometry" />
        </mxCell>
        <mxCell id="GGeQDxoz1ZYIfTlr36AT-3" value="随机初始内点" style="rounded=0;whiteSpace=wrap;html=1;" vertex="1" parent="1">
          <mxGeometry x="330" y="162" width="110" height="20" as="geometry" />
        </mxCell>
        <mxCell id="GGeQDxoz1ZYIfTlr36AT-16" style="edgeStyle=orthogonalEdgeStyle;rounded=0;orthogonalLoop=1;jettySize=auto;html=1;entryX=0.5;entryY=0;entryDx=0;entryDy=0;startSize=2;endSize=3;" edge="1" parent="1" source="GGeQDxoz1ZYIfTlr36AT-4" target="GGeQDxoz1ZYIfTlr36AT-5">
          <mxGeometry relative="1" as="geometry" />
        </mxCell>
        <mxCell id="GGeQDxoz1ZYIfTlr36AT-4" value="拟合模型" style="rounded=0;whiteSpace=wrap;html=1;" vertex="1" parent="1">
          <mxGeometry x="330" y="204" width="110" height="20" as="geometry" />
        </mxCell>
        <mxCell id="GGeQDxoz1ZYIfTlr36AT-19" style="edgeStyle=orthogonalEdgeStyle;rounded=0;orthogonalLoop=1;jettySize=auto;html=1;startSize=2;endSize=3;" edge="1" parent="1" source="GGeQDxoz1ZYIfTlr36AT-5" target="GGeQDxoz1ZYIfTlr36AT-6">
          <mxGeometry relative="1" as="geometry" />
        </mxCell>
        <mxCell id="GGeQDxoz1ZYIfTlr36AT-5" value="测试其余数据" style="rounded=0;whiteSpace=wrap;html=1;" vertex="1" parent="1">
          <mxGeometry x="330" y="247" width="110" height="20" as="geometry" />
        </mxCell>
        <mxCell id="GGeQDxoz1ZYIfTlr36AT-20" style="edgeStyle=orthogonalEdgeStyle;rounded=0;orthogonalLoop=1;jettySize=auto;html=1;exitX=0.5;exitY=1;exitDx=0;exitDy=0;entryX=0.5;entryY=0;entryDx=0;entryDy=0;startSize=2;endSize=3;" edge="1" parent="1" source="GGeQDxoz1ZYIfTlr36AT-6" target="GGeQDxoz1ZYIfTlr36AT-7">
          <mxGeometry relative="1" as="geometry" />
        </mxCell>
        <mxCell id="GGeQDxoz1ZYIfTlr36AT-31" style="edgeStyle=orthogonalEdgeStyle;rounded=0;orthogonalLoop=1;jettySize=auto;html=1;" edge="1" parent="1" source="GGeQDxoz1ZYIfTlr36AT-6">
          <mxGeometry relative="1" as="geometry">
            <mxPoint x="385" y="345" as="targetPoint" />
          </mxGeometry>
        </mxCell>
        <mxCell id="GGeQDxoz1ZYIfTlr36AT-33" style="edgeStyle=orthogonalEdgeStyle;rounded=0;orthogonalLoop=1;jettySize=auto;html=1;endArrow=none;endFill=0;" edge="1" parent="1" source="GGeQDxoz1ZYIfTlr36AT-6">
          <mxGeometry relative="1" as="geometry">
            <mxPoint x="385" y="358" as="targetPoint" />
            <Array as="points">
              <mxPoint x="484" y="299" />
              <mxPoint x="484" y="358" />
            </Array>
          </mxGeometry>
        </mxCell>
        <mxCell id="GGeQDxoz1ZYIfTlr36AT-6" value="数据符合模型" style="rhombus;whiteSpace=wrap;html=1;" vertex="1" parent="1">
          <mxGeometry x="330" y="284" width="110" height="30" as="geometry" />
        </mxCell>
        <mxCell id="GGeQDxoz1ZYIfTlr36AT-21" style="edgeStyle=orthogonalEdgeStyle;rounded=0;orthogonalLoop=1;jettySize=auto;html=1;entryX=0.5;entryY=0;entryDx=0;entryDy=0;startSize=2;endSize=3;" edge="1" parent="1" source="GGeQDxoz1ZYIfTlr36AT-7" target="GGeQDxoz1ZYIfTlr36AT-8">
          <mxGeometry relative="1" as="geometry" />
        </mxCell>
        <mxCell id="GGeQDxoz1ZYIfTlr36AT-7" value="加入内点" style="rounded=0;whiteSpace=wrap;html=1;" vertex="1" parent="1">
          <mxGeometry x="330" y="331" width="110" height="20" as="geometry" />
        </mxCell>
        <mxCell id="GGeQDxoz1ZYIfTlr36AT-22" style="edgeStyle=orthogonalEdgeStyle;rounded=0;orthogonalLoop=1;jettySize=auto;html=1;entryX=0.5;entryY=0;entryDx=0;entryDy=0;startSize=2;endSize=3;" edge="1" parent="1" source="GGeQDxoz1ZYIfTlr36AT-8" target="GGeQDxoz1ZYIfTlr36AT-9">
          <mxGeometry relative="1" as="geometry" />
        </mxCell>
        <mxCell id="GGeQDxoz1ZYIfTlr36AT-28" style="edgeStyle=orthogonalEdgeStyle;rounded=0;orthogonalLoop=1;jettySize=auto;html=1;endArrow=none;endFill=0;" edge="1" parent="1" source="GGeQDxoz1ZYIfTlr36AT-8">
          <mxGeometry relative="1" as="geometry">
            <mxPoint x="385" y="270" as="targetPoint" />
            <Array as="points">
              <mxPoint x="518" y="383" />
              <mxPoint x="518" y="274" />
              <mxPoint x="385" y="274" />
            </Array>
          </mxGeometry>
        </mxCell>
        <mxCell id="GGeQDxoz1ZYIfTlr36AT-8" value="测试完毕" style="rhombus;whiteSpace=wrap;html=1;" vertex="1" parent="1">
          <mxGeometry x="330" y="368" width="110" height="30" as="geometry" />
        </mxCell>
        <mxCell id="GGeQDxoz1ZYIfTlr36AT-23" style="edgeStyle=orthogonalEdgeStyle;rounded=0;orthogonalLoop=1;jettySize=auto;html=1;entryX=0.5;entryY=0;entryDx=0;entryDy=0;startSize=2;endSize=3;" edge="1" parent="1" source="GGeQDxoz1ZYIfTlr36AT-9" target="GGeQDxoz1ZYIfTlr36AT-10">
          <mxGeometry relative="1" as="geometry" />
        </mxCell>
        <mxCell id="GGeQDxoz1ZYIfTlr36AT-9" value="重新拟合模型" style="rounded=0;whiteSpace=wrap;html=1;" vertex="1" parent="1">
          <mxGeometry x="330" y="416" width="110" height="20" as="geometry" />
        </mxCell>
        <mxCell id="GGeQDxoz1ZYIfTlr36AT-24" style="edgeStyle=orthogonalEdgeStyle;rounded=0;orthogonalLoop=1;jettySize=auto;html=1;entryX=0.5;entryY=0;entryDx=0;entryDy=0;startSize=2;endSize=3;" edge="1" parent="1" source="GGeQDxoz1ZYIfTlr36AT-10" target="GGeQDxoz1ZYIfTlr36AT-11">
          <mxGeometry relative="1" as="geometry" />
        </mxCell>
        <mxCell id="GGeQDxoz1ZYIfTlr36AT-35" style="edgeStyle=orthogonalEdgeStyle;rounded=0;orthogonalLoop=1;jettySize=auto;html=1;endArrow=none;endFill=0;" edge="1" parent="1" source="GGeQDxoz1ZYIfTlr36AT-10">
          <mxGeometry relative="1" as="geometry">
            <mxPoint x="385" y="146" as="targetPoint" />
            <Array as="points">
              <mxPoint x="560" y="468" />
              <mxPoint x="560" y="148" />
              <mxPoint x="385" y="148" />
            </Array>
          </mxGeometry>
        </mxCell>
        <mxCell id="GGeQDxoz1ZYIfTlr36AT-10" value="模型符合要求" style="rhombus;whiteSpace=wrap;html=1;" vertex="1" parent="1">
          <mxGeometry x="330" y="453" width="110" height="30" as="geometry" />
        </mxCell>
        <mxCell id="GGeQDxoz1ZYIfTlr36AT-11" value="结束" style="rounded=0;whiteSpace=wrap;html=1;" vertex="1" parent="1">
          <mxGeometry x="365" y="500" width="40" height="20" as="geometry" />
        </mxCell>
        <mxCell id="GGeQDxoz1ZYIfTlr36AT-36" value="是" style="text;html=1;align=center;verticalAlign=middle;resizable=0;points=[];autosize=1;strokeColor=none;fillColor=none;" vertex="1" parent="1">
          <mxGeometry x="382" y="476" width="32" height="28" as="geometry" />
        </mxCell>
        <mxCell id="GGeQDxoz1ZYIfTlr36AT-37" value="否" style="text;html=1;align=center;verticalAlign=middle;resizable=0;points=[];autosize=1;strokeColor=none;fillColor=none;" vertex="1" parent="1">
          <mxGeometry x="426" y="443" width="32" height="28" as="geometry" />
        </mxCell>
        <mxCell id="GGeQDxoz1ZYIfTlr36AT-38" value="否" style="text;html=1;align=center;verticalAlign=middle;resizable=0;points=[];autosize=1;strokeColor=none;fillColor=none;" vertex="1" parent="1">
          <mxGeometry x="426" y="360" width="32" height="28" as="geometry" />
        </mxCell>
        <mxCell id="GGeQDxoz1ZYIfTlr36AT-39" value="否" style="text;html=1;align=center;verticalAlign=middle;resizable=0;points=[];autosize=1;strokeColor=none;fillColor=none;" vertex="1" parent="1">
          <mxGeometry x="426" y="276" width="32" height="28" as="geometry" />
        </mxCell>
        <mxCell id="GGeQDxoz1ZYIfTlr36AT-40" value="是" style="text;html=1;align=center;verticalAlign=middle;resizable=0;points=[];autosize=1;strokeColor=none;fillColor=none;" vertex="1" parent="1">
          <mxGeometry x="382" y="392" width="32" height="28" as="geometry" />
        </mxCell>
        <mxCell id="GGeQDxoz1ZYIfTlr36AT-41" value="是" style="text;html=1;align=center;verticalAlign=middle;resizable=0;points=[];autosize=1;strokeColor=none;fillColor=none;" vertex="1" parent="1">
          <mxGeometry x="382" y="308" width="32" height="28" as="geometry" />
        </mxCell>
      </root>
    </mxGraphModel>
  </diagram>
</mxfile>
